<svg id="Layer_1" viewBox="0 0 24 24" xmlns="http://www.w3.org/2000/svg" data-name="Layer 1"><path d="m15.562 6.502-.003-.009c-.319-.893-1.171-1.493-2.119-1.493h-2.879c-.949 0-1.8.6-2.122 1.502l-1.191 3.552c-.164.716-.247 1.428-.247 2.115v1.83h1v1h2v-1h4v1h2v-1h1v-1.83c0-.688-.083-1.399-.261-2.163l-1.178-3.505zm-6.179.327c.177-.496.65-.83 1.177-.83h2.879c.525 0 .997.332 1.176.826l1.069 3.174h-7.367l1.065-3.17zm6.617 6.17h-8v-.83c0-.387.039-.78.095-1.17h.905v1h1v-1h4v1h1v-1h.904c.057.396.096.788.096 1.17zm3.07-10.071c-1.889-1.889-4.399-2.929-7.07-2.929s-5.183 1.041-7.071 2.93c-3.899 3.899-3.899 10.243.004 14.146l7.067 6.912 7.071-6.916c3.898-3.899 3.898-10.243 0-14.142zm-.703 13.431-6.368 6.229-6.364-6.225c-3.509-3.509-3.509-9.219 0-12.728 1.7-1.7 3.96-2.636 6.364-2.636s4.664.936 6.363 2.636c3.509 3.509 3.509 9.219.004 12.724z"/></svg>